<svg width="114" height="158" viewBox="0 0 114 158" fill="none" xmlns="http://www.w3.org/2000/svg">
<mask id="path-1-outside-1_1_43" maskUnits="userSpaceOnUse" x="25" y="44" width="64" height="63" fill="black">
<rect fill="white" x="25" y="44" width="64" height="63"/>
<path d="M64.5 68.8H80.9V81.9H64.5V98.4H50.2V81.9H33.9V68.8H50.2V52.3H64.5V68.8Z"/>
</mask>
<path d="M64.5 68.8H80.9V81.9H64.5V98.4H50.2V81.9H33.9V68.8H50.2V52.3H64.5V68.8Z" fill="white"/>
<path d="M64.5 68.8H56.5V76.8H64.5V68.8ZM80.9 68.8H88.9V60.8H80.9V68.8ZM80.9 81.9V89.9H88.9V81.9H80.9ZM64.5 81.9V73.9H56.5V81.9H64.5ZM64.5 98.4V106.4H72.5V98.4H64.5ZM50.2 98.4H42.2V106.4H50.2V98.4ZM50.2 81.9H58.2V73.9H50.2V81.9ZM33.9 81.9H25.9V89.9H33.9V81.9ZM33.9 68.8V60.8H25.9V68.8H33.9ZM50.2 68.8V76.8H58.2V68.8H50.2ZM50.2 52.3V44.3H42.2V52.3H50.2ZM64.5 52.3H72.5V44.3H64.5V52.3ZM64.5 68.8V76.8H80.9V68.8V60.8H64.5V68.8ZM80.9 68.8H72.9V81.9H80.9H88.9V68.8H80.9ZM80.9 81.9V73.9H64.5V81.9V89.9H80.9V81.9ZM64.5 81.9H56.5V98.4H64.5H72.5V81.9H64.5ZM64.5 98.4V90.4H50.2V98.4V106.4H64.5V98.4ZM50.2 98.4H58.2V81.9H50.2H42.2V98.4H50.2ZM50.2 81.9V73.9H33.9V81.9V89.9H50.2V81.9ZM33.9 81.9H41.9V68.8H33.9H25.9V81.9H33.9ZM33.9 68.8V76.8H50.2V68.8V60.8H33.9V68.8ZM50.2 68.8H58.2V52.3H50.2H42.2V68.8H50.2ZM50.2 52.3V60.3H64.5V52.3V44.3H50.2V52.3ZM64.5 52.3H56.5V68.8H64.5H72.5V52.3H64.5Z" fill="black" mask="url(#path-1-outside-1_1_43)"/>
<mask id="path-3-outside-2_1_43" maskUnits="userSpaceOnUse" x="17" y="95" width="77" height="32" fill="black">
<rect fill="white" x="17" y="95" width="77" height="32"/>
<path d="M29.7521 122H24.0844L31.446 100.182H38.4665L45.8281 122H40.1604L35.0362 105.679H34.8657L29.7521 122ZM28.9957 113.413H40.8423V117.419H28.9957V113.413ZM56.2418 122H48.1771V100.182H56.2311C58.4541 100.182 60.3682 100.619 61.9733 101.492C63.5855 102.359 64.8284 103.609 65.702 105.242C66.5756 106.869 67.0124 108.815 67.0124 111.08C67.0124 113.353 66.5756 115.306 65.702 116.94C64.8355 118.573 63.5962 119.827 61.9839 120.7C60.3717 121.567 58.4577 122 56.2418 122ZM53.4506 117.504H56.0393C57.2609 117.504 58.2943 117.298 59.1395 116.886C59.9918 116.467 60.6345 115.789 61.0678 114.852C61.5081 113.907 61.7283 112.65 61.7283 111.08C61.7283 109.511 61.5081 108.261 61.0678 107.33C60.6274 106.393 59.9776 105.718 59.1182 105.306C58.2659 104.887 57.2148 104.678 55.9648 104.678H53.4506V117.504ZM78.1558 122H70.0912V100.182H78.1452C80.3682 100.182 82.2822 100.619 83.8874 101.492C85.4996 102.359 86.7425 103.609 87.616 105.242C88.4896 106.869 88.9264 108.815 88.9264 111.08C88.9264 113.353 88.4896 115.306 87.616 116.94C86.7496 118.573 85.5102 119.827 83.898 120.7C82.2858 121.567 80.3717 122 78.1558 122ZM75.3646 117.504H77.9534C79.175 117.504 80.2084 117.298 81.0535 116.886C81.9058 116.467 82.5486 115.789 82.9818 114.852C83.4222 113.907 83.6423 112.65 83.6423 111.08C83.6423 109.511 83.4222 108.261 82.9818 107.33C82.5415 106.393 81.8916 105.718 81.0322 105.306C80.18 104.887 79.1288 104.678 77.8788 104.678H75.3646V117.504Z"/>
</mask>
<path d="M29.7521 122H24.0844L31.446 100.182H38.4665L45.8281 122H40.1604L35.0362 105.679H34.8657L29.7521 122ZM28.9957 113.413H40.8423V117.419H28.9957V113.413ZM56.2418 122H48.1771V100.182H56.2311C58.4541 100.182 60.3682 100.619 61.9733 101.492C63.5855 102.359 64.8284 103.609 65.702 105.242C66.5756 106.869 67.0124 108.815 67.0124 111.08C67.0124 113.353 66.5756 115.306 65.702 116.94C64.8355 118.573 63.5962 119.827 61.9839 120.7C60.3717 121.567 58.4577 122 56.2418 122ZM53.4506 117.504H56.0393C57.2609 117.504 58.2943 117.298 59.1395 116.886C59.9918 116.467 60.6345 115.789 61.0678 114.852C61.5081 113.907 61.7283 112.65 61.7283 111.08C61.7283 109.511 61.5081 108.261 61.0678 107.33C60.6274 106.393 59.9776 105.718 59.1182 105.306C58.2659 104.887 57.2148 104.678 55.9648 104.678H53.4506V117.504ZM78.1558 122H70.0912V100.182H78.1452C80.3682 100.182 82.2822 100.619 83.8874 101.492C85.4996 102.359 86.7425 103.609 87.616 105.242C88.4896 106.869 88.9264 108.815 88.9264 111.08C88.9264 113.353 88.4896 115.306 87.616 116.94C86.7496 118.573 85.5102 119.827 83.898 120.7C82.2858 121.567 80.3717 122 78.1558 122ZM75.3646 117.504H77.9534C79.175 117.504 80.2084 117.298 81.0535 116.886C81.9058 116.467 82.5486 115.789 82.9818 114.852C83.4222 113.907 83.6423 112.65 83.6423 111.08C83.6423 109.511 83.4222 108.261 82.9818 107.33C82.5415 106.393 81.8916 105.718 81.0322 105.306C80.18 104.887 79.1288 104.678 77.8788 104.678H75.3646V117.504Z" fill="white"/>
<path d="M29.7521 122V127H33.4252L34.5234 123.495L29.7521 122ZM24.0844 122L19.3468 120.402L17.1205 127H24.0844V122ZM31.446 100.182V95.1818H27.856L26.7084 98.5833L31.446 100.182ZM38.4665 100.182L43.2042 98.5833L42.0565 95.1818H38.4665V100.182ZM45.8281 122V127H52.792L50.5657 120.402L45.8281 122ZM40.1604 122L35.39 123.498L36.4896 127H40.1604V122ZM35.0362 105.679L39.8066 104.181L38.707 100.679H35.0362V105.679ZM34.8657 105.679V100.679H31.1926L30.0944 104.184L34.8657 105.679ZM28.9957 113.413V108.413H23.9957V113.413H28.9957ZM40.8423 113.413H45.8423V108.413H40.8423V113.413ZM40.8423 117.419V122.419H45.8423V117.419H40.8423ZM28.9957 117.419H23.9957V122.419H28.9957V117.419ZM29.7521 122V117H24.0844V122V127H29.7521V122ZM24.0844 122L28.822 123.598L36.1836 101.78L31.446 100.182L26.7084 98.5833L19.3468 120.402L24.0844 122ZM31.446 100.182V105.182H38.4665V100.182V95.1818H31.446V100.182ZM38.4665 100.182L33.7289 101.78L41.0905 123.598L45.8281 122L50.5657 120.402L43.2042 98.5833L38.4665 100.182ZM45.8281 122V117H40.1604V122V127H45.8281V122ZM40.1604 122L44.9308 120.502L39.8066 104.181L35.0362 105.679L30.2658 107.177L35.39 123.498L40.1604 122ZM35.0362 105.679V100.679H34.8657V105.679V110.679H35.0362V105.679ZM34.8657 105.679L30.0944 104.184L24.9808 120.505L29.7521 122L34.5234 123.495L39.637 107.174L34.8657 105.679ZM28.9957 113.413V118.413H40.8423V113.413V108.413H28.9957V113.413ZM40.8423 113.413H35.8423V117.419H40.8423H45.8423V113.413H40.8423ZM40.8423 117.419V112.419H28.9957V117.419V122.419H40.8423V117.419ZM28.9957 117.419H33.9957V113.413H28.9957H23.9957V117.419H28.9957ZM48.1771 122H43.1771V127H48.1771V122ZM48.1771 100.182V95.1818H43.1771V100.182H48.1771ZM61.9733 101.492L59.5831 105.884L59.5947 105.89L59.6063 105.896L61.9733 101.492ZM65.702 105.242L61.2929 107.6L61.2972 107.608L65.702 105.242ZM65.702 116.94L61.2929 114.582L61.2889 114.589L61.2849 114.597L65.702 116.94ZM61.9839 120.7L64.351 125.105L64.3585 125.1L64.366 125.096L61.9839 120.7ZM53.4506 117.504H48.4506V122.504H53.4506V117.504ZM59.1395 116.886L61.3301 121.381L61.3379 121.377L61.3456 121.373L59.1395 116.886ZM61.0678 114.852L56.536 112.739L56.5325 112.747L56.529 112.754L61.0678 114.852ZM61.0678 107.33L56.5421 109.456L56.5452 109.463L56.5484 109.469L61.0678 107.33ZM59.1182 105.306L56.9121 109.793L56.9345 109.804L56.957 109.815L59.1182 105.306ZM53.4506 104.678V99.6776H48.4506V104.678H53.4506ZM56.2418 122V117H48.1771V122V127H56.2418V122ZM48.1771 122H53.1771V100.182H48.1771H43.1771V122H48.1771ZM48.1771 100.182V105.182H56.2311V100.182V95.1818H48.1771V100.182ZM56.2311 100.182V105.182C57.7984 105.182 58.8542 105.487 59.5831 105.884L61.9733 101.492L64.3635 97.1005C61.8821 95.75 59.1099 95.1818 56.2311 95.1818V100.182ZM61.9733 101.492L59.6063 105.896C60.34 106.291 60.8777 106.824 61.2929 107.6L65.702 105.242L70.1111 102.884C68.7791 100.394 66.831 98.4266 64.3403 97.088L61.9733 101.492ZM65.702 105.242L61.2972 107.608C61.7009 108.36 62.0124 109.455 62.0124 111.08H67.0124H72.0124C72.0124 108.174 71.4503 105.378 70.1068 102.876L65.702 105.242ZM67.0124 111.08H62.0124C62.0124 112.715 61.7 113.82 61.2929 114.582L65.702 116.94L70.1111 119.298C71.4511 116.792 72.0124 113.991 72.0124 111.08H67.0124ZM65.702 116.94L61.2849 114.597C60.8757 115.368 60.3407 115.904 59.6019 116.304L61.9839 120.7L64.366 125.096C66.8516 123.75 68.7953 121.778 70.1191 119.283L65.702 116.94ZM61.9839 120.7L59.6169 116.296C58.8707 116.697 57.8043 117 56.2418 117V122V127C59.1111 127 61.8728 126.436 64.351 125.105L61.9839 120.7ZM53.4506 117.504V122.504H56.0393V117.504V112.504H53.4506V117.504ZM56.0393 117.504V122.504C57.8013 122.504 59.63 122.21 61.3301 121.381L59.1395 116.886L56.9489 112.392C56.9587 112.387 56.7206 112.504 56.0393 112.504V117.504ZM59.1395 116.886L61.3456 121.373C63.3185 120.403 64.7375 118.83 65.6065 116.949L61.0678 114.852L56.529 112.754C56.5167 112.781 56.5415 112.719 56.6315 112.624C56.7253 112.525 56.8356 112.447 56.9334 112.399L59.1395 116.886ZM61.0678 114.852L65.5995 116.964C66.4643 115.109 66.7283 113.044 66.7283 111.08H61.7283H56.7283C56.7283 111.639 56.6885 112.05 56.6381 112.338C56.5874 112.627 56.5348 112.742 56.536 112.739L61.0678 114.852ZM61.7283 111.08H66.7283C66.7283 109.123 66.4662 107.049 65.5871 105.191L61.0678 107.33L56.5484 109.469C56.5391 109.45 56.5891 109.55 56.6389 109.833C56.6884 110.114 56.7283 110.521 56.7283 111.08H61.7283ZM61.0678 107.33L65.5934 105.205C64.7087 103.321 63.2707 101.752 61.2794 100.797L59.1182 105.306L56.957 109.815C56.8579 109.767 56.7452 109.69 56.6489 109.59C56.5564 109.494 56.5301 109.43 56.5421 109.456L61.0678 107.33ZM59.1182 105.306L61.3243 100.819C59.604 99.9733 57.7477 99.6776 55.9648 99.6776V104.678V109.678C56.6818 109.678 56.9278 109.801 56.9121 109.793L59.1182 105.306ZM55.9648 104.678V99.6776H53.4506V104.678V109.678H55.9648V104.678ZM53.4506 104.678H48.4506V117.504H53.4506H58.4506V104.678H53.4506ZM70.0912 122H65.0912V127H70.0912V122ZM70.0912 100.182V95.1818H65.0912V100.182H70.0912ZM83.8874 101.492L81.4972 105.884L81.5087 105.89L81.5203 105.896L83.8874 101.492ZM87.616 105.242L83.2069 107.6L83.2112 107.608L87.616 105.242ZM87.616 116.94L83.2069 114.582L83.2029 114.589L83.199 114.597L87.616 116.94ZM83.898 120.7L86.265 125.105L86.2725 125.1L86.28 125.096L83.898 120.7ZM75.3646 117.504H70.3646V122.504H75.3646V117.504ZM81.0535 116.886L83.2442 121.381L83.2519 121.377L83.2597 121.373L81.0535 116.886ZM82.9818 114.852L78.45 112.739L78.4465 112.747L78.443 112.754L82.9818 114.852ZM82.9818 107.33L78.4562 109.456L78.4593 109.463L78.4624 109.469L82.9818 107.33ZM81.0322 105.306L78.8261 109.793L78.8485 109.804L78.871 109.815L81.0322 105.306ZM75.3646 104.678V99.6776H70.3646V104.678H75.3646ZM78.1558 122V117H70.0912V122V127H78.1558V122ZM70.0912 122H75.0912V100.182H70.0912H65.0912V122H70.0912ZM70.0912 100.182V105.182H78.1452V100.182V95.1818H70.0912V100.182ZM78.1452 100.182V105.182C79.7124 105.182 80.7683 105.487 81.4972 105.884L83.8874 101.492L86.2775 97.1005C83.7962 95.75 81.0239 95.1818 78.1452 95.1818V100.182ZM83.8874 101.492L81.5203 105.896C82.2541 106.291 82.7917 106.824 83.2069 107.6L87.616 105.242L92.0252 102.884C90.6932 100.394 88.745 98.4266 86.2544 97.088L83.8874 101.492ZM87.616 105.242L83.2112 107.608C83.6149 108.36 83.9264 109.455 83.9264 111.08H88.9264H93.9264C93.9264 108.174 93.3643 105.378 92.0209 102.876L87.616 105.242ZM88.9264 111.08H83.9264C83.9264 112.715 83.6141 113.82 83.2069 114.582L87.616 116.94L92.0252 119.298C93.3652 116.792 93.9264 113.991 93.9264 111.08H88.9264ZM87.616 116.94L83.199 114.597C82.7898 115.368 82.2548 115.904 81.516 116.304L83.898 120.7L86.28 125.096C88.7657 123.75 90.7094 121.778 92.0331 119.283L87.616 116.94ZM83.898 120.7L81.531 116.296C80.7847 116.697 79.7183 117 78.1558 117V122V127C81.0251 127 83.7869 126.436 86.265 125.105L83.898 120.7ZM75.3646 117.504V122.504H77.9534V117.504V112.504H75.3646V117.504ZM77.9534 117.504V122.504C79.7154 122.504 81.544 122.21 83.2442 121.381L81.0535 116.886L78.8629 112.392C78.8727 112.387 78.6346 112.504 77.9534 112.504V117.504ZM81.0535 116.886L83.2597 121.373C85.2326 120.403 86.6516 118.83 87.5206 116.949L82.9818 114.852L78.443 112.754C78.4307 112.781 78.4556 112.719 78.5456 112.624C78.6393 112.525 78.7496 112.447 78.8474 112.399L81.0535 116.886ZM82.9818 114.852L87.5136 116.964C88.3783 115.109 88.6423 113.044 88.6423 111.08H83.6423H78.6423C78.6423 111.639 78.6026 112.05 78.5522 112.338C78.5015 112.627 78.4489 112.742 78.45 112.739L82.9818 114.852ZM83.6423 111.08H88.6423C88.6423 109.123 88.3802 107.049 87.5012 105.191L82.9818 107.33L78.4624 109.469C78.4531 109.45 78.5032 109.55 78.553 109.833C78.6025 110.114 78.6423 110.521 78.6423 111.08H83.6423ZM82.9818 107.33L87.5075 105.205C86.6227 103.321 85.1847 101.752 83.1935 100.797L81.0322 105.306L78.871 109.815C78.772 109.767 78.6593 109.69 78.5629 109.59C78.4704 109.494 78.4442 109.43 78.4562 109.456L82.9818 107.33ZM81.0322 105.306L83.2383 100.819C81.518 99.9733 79.6618 99.6776 77.8788 99.6776V104.678V109.678C78.5959 109.678 78.8419 109.801 78.8261 109.793L81.0322 105.306ZM77.8788 104.678V99.6776H75.3646V104.678V109.678H77.8788V104.678ZM75.3646 104.678H70.3646V117.504H75.3646H80.3646V104.678H75.3646Z" fill="black" mask="url(#path-3-outside-2_1_43)"/>
<mask id="path-5-outside-3_1_43" maskUnits="userSpaceOnUse" x="12" y="123" width="96" height="34" fill="black">
<rect fill="white" x="12" y="123" width="96" height="34"/>
<path d="M17.3462 133.464V129.182H35.7872V133.464H29.1714V151H23.9726V133.464H17.3462ZM40.3575 151H34.6899L42.0514 129.182H49.072L56.4335 151H50.7659L45.6416 134.679H45.4712L40.3575 151ZM39.6011 142.413H51.4477V146.419H39.6011V142.413ZM69.9021 135.723C69.8311 134.942 69.515 134.335 68.9539 133.901C68.4 133.461 67.6081 133.241 66.5782 133.241C65.8964 133.241 65.3282 133.33 64.8737 133.507C64.4191 133.685 64.0782 133.93 63.851 134.242C63.6237 134.548 63.5065 134.899 63.4994 135.297C63.4852 135.624 63.5491 135.911 63.6912 136.16C63.8403 136.408 64.0534 136.629 64.3304 136.82C64.6145 137.005 64.9554 137.168 65.3531 137.31C65.7508 137.452 66.1983 137.577 66.6954 137.683L68.5704 138.109C69.65 138.344 70.6017 138.656 71.4255 139.047C72.2565 139.438 72.9525 139.903 73.5136 140.442C74.0818 140.982 74.5115 141.604 74.8027 142.307C75.0939 143.01 75.243 143.798 75.2501 144.672C75.243 146.05 74.895 147.232 74.2061 148.219C73.5172 149.207 72.5264 149.963 71.2338 150.489C69.9483 151.014 68.3964 151.277 66.5782 151.277C64.7529 151.277 63.162 151.004 61.8055 150.457C60.449 149.91 59.3943 149.079 58.6414 147.964C57.8886 146.849 57.5015 145.439 57.4802 143.734H62.5299C62.5725 144.438 62.7608 145.023 63.0946 145.492C63.4284 145.961 63.8865 146.316 64.4689 146.558C65.0583 146.799 65.7402 146.92 66.5143 146.92C67.2245 146.92 67.8282 146.824 68.3254 146.632C68.8297 146.44 69.2167 146.174 69.4866 145.833C69.7565 145.492 69.895 145.102 69.9021 144.661C69.895 144.249 69.7672 143.898 69.5186 143.607C69.27 143.308 68.8865 143.053 68.368 142.839C67.8566 142.619 67.2032 142.417 66.4078 142.232L64.1279 141.7C62.2387 141.266 60.7508 140.567 59.6642 139.601C58.5775 138.628 58.0377 137.314 58.0449 135.659C58.0377 134.31 58.4 133.127 59.1315 132.112C59.863 131.096 60.8751 130.304 62.1677 129.736C63.4603 129.168 64.9341 128.884 66.5889 128.884C68.2792 128.884 69.7458 129.171 70.9887 129.746C72.2387 130.315 73.2082 131.114 73.8971 132.143C74.586 133.173 74.9376 134.366 74.9518 135.723H69.9021ZM77.9135 151V129.182H83.1869V138.408H83.4745L90.6869 129.182H96.8978L89.1635 138.919L97.0363 151H90.7295L85.2963 142.424L83.1869 145.087V151H77.9135Z"/>
</mask>
<path d="M17.3462 133.464V129.182H35.7872V133.464H29.1714V151H23.9726V133.464H17.3462ZM40.3575 151H34.6899L42.0514 129.182H49.072L56.4335 151H50.7659L45.6416 134.679H45.4712L40.3575 151ZM39.6011 142.413H51.4477V146.419H39.6011V142.413ZM69.9021 135.723C69.8311 134.942 69.515 134.335 68.9539 133.901C68.4 133.461 67.6081 133.241 66.5782 133.241C65.8964 133.241 65.3282 133.33 64.8737 133.507C64.4191 133.685 64.0782 133.93 63.851 134.242C63.6237 134.548 63.5065 134.899 63.4994 135.297C63.4852 135.624 63.5491 135.911 63.6912 136.16C63.8403 136.408 64.0534 136.629 64.3304 136.82C64.6145 137.005 64.9554 137.168 65.3531 137.31C65.7508 137.452 66.1983 137.577 66.6954 137.683L68.5704 138.109C69.65 138.344 70.6017 138.656 71.4255 139.047C72.2565 139.438 72.9525 139.903 73.5136 140.442C74.0818 140.982 74.5115 141.604 74.8027 142.307C75.0939 143.01 75.243 143.798 75.2501 144.672C75.243 146.05 74.895 147.232 74.2061 148.219C73.5172 149.207 72.5264 149.963 71.2338 150.489C69.9483 151.014 68.3964 151.277 66.5782 151.277C64.7529 151.277 63.162 151.004 61.8055 150.457C60.449 149.91 59.3943 149.079 58.6414 147.964C57.8886 146.849 57.5015 145.439 57.4802 143.734H62.5299C62.5725 144.438 62.7608 145.023 63.0946 145.492C63.4284 145.961 63.8865 146.316 64.4689 146.558C65.0583 146.799 65.7402 146.92 66.5143 146.92C67.2245 146.92 67.8282 146.824 68.3254 146.632C68.8297 146.44 69.2167 146.174 69.4866 145.833C69.7565 145.492 69.895 145.102 69.9021 144.661C69.895 144.249 69.7672 143.898 69.5186 143.607C69.27 143.308 68.8865 143.053 68.368 142.839C67.8566 142.619 67.2032 142.417 66.4078 142.232L64.1279 141.7C62.2387 141.266 60.7508 140.567 59.6642 139.601C58.5775 138.628 58.0377 137.314 58.0449 135.659C58.0377 134.31 58.4 133.127 59.1315 132.112C59.863 131.096 60.8751 130.304 62.1677 129.736C63.4603 129.168 64.9341 128.884 66.5889 128.884C68.2792 128.884 69.7458 129.171 70.9887 129.746C72.2387 130.315 73.2082 131.114 73.8971 132.143C74.586 133.173 74.9376 134.366 74.9518 135.723H69.9021ZM77.9135 151V129.182H83.1869V138.408H83.4745L90.6869 129.182H96.8978L89.1635 138.919L97.0363 151H90.7295L85.2963 142.424L83.1869 145.087V151H77.9135Z" fill="white"/>
<path d="M17.3462 133.464H12.3462V138.464H17.3462V133.464ZM17.3462 129.182V124.182H12.3462V129.182H17.3462ZM35.7872 129.182H40.7872V124.182H35.7872V129.182ZM35.7872 133.464V138.464H40.7872V133.464H35.7872ZM29.1714 133.464V128.464H24.1714V133.464H29.1714ZM29.1714 151V156H34.1714V151H29.1714ZM23.9726 151H18.9726V156H23.9726V151ZM23.9726 133.464H28.9726V128.464H23.9726V133.464ZM17.3462 133.464H22.3462V129.182H17.3462H12.3462V133.464H17.3462ZM17.3462 129.182V134.182H35.7872V129.182V124.182H17.3462V129.182ZM35.7872 129.182H30.7872V133.464H35.7872H40.7872V129.182H35.7872ZM35.7872 133.464V128.464H29.1714V133.464V138.464H35.7872V133.464ZM29.1714 133.464H24.1714V151H29.1714H34.1714V133.464H29.1714ZM29.1714 151V146H23.9726V151V156H29.1714V151ZM23.9726 151H28.9726V133.464H23.9726H18.9726V151H23.9726ZM23.9726 133.464V128.464H17.3462V133.464V138.464H23.9726V133.464ZM40.3575 151V156H44.0306L45.1288 152.495L40.3575 151ZM34.6899 151L29.9523 149.402L27.726 156H34.6899V151ZM42.0514 129.182V124.182H38.4615L37.3138 127.583L42.0514 129.182ZM49.072 129.182L53.8096 127.583L52.6619 124.182H49.072V129.182ZM56.4335 151V156H63.3975L61.1711 149.402L56.4335 151ZM50.7659 151L45.9955 152.498L47.0951 156H50.7659V151ZM45.6416 134.679L50.412 133.181L49.3124 129.679H45.6416V134.679ZM45.4712 134.679V129.679H41.7981L40.6999 133.184L45.4712 134.679ZM39.6011 142.413V137.413H34.6011V142.413H39.6011ZM51.4477 142.413H56.4477V137.413H51.4477V142.413ZM51.4477 146.419V151.419H56.4477V146.419H51.4477ZM39.6011 146.419H34.6011V151.419H39.6011V146.419ZM40.3575 151V146H34.6899V151V156H40.3575V151ZM34.6899 151L39.4275 152.598L46.789 130.78L42.0514 129.182L37.3138 127.583L29.9523 149.402L34.6899 151ZM42.0514 129.182V134.182H49.072V129.182V124.182H42.0514V129.182ZM49.072 129.182L44.3344 130.78L51.6959 152.598L56.4335 151L61.1711 149.402L53.8096 127.583L49.072 129.182ZM56.4335 151V146H50.7659V151V156H56.4335V151ZM50.7659 151L55.5363 149.502L50.412 133.181L45.6416 134.679L40.8712 136.177L45.9955 152.498L50.7659 151ZM45.6416 134.679V129.679H45.4712V134.679V139.679H45.6416V134.679ZM45.4712 134.679L40.6999 133.184L35.5862 149.505L40.3575 151L45.1288 152.495L50.2425 136.174L45.4712 134.679ZM39.6011 142.413V147.413H51.4477V142.413V137.413H39.6011V142.413ZM51.4477 142.413H46.4477V146.419H51.4477H56.4477V142.413H51.4477ZM51.4477 146.419V141.419H39.6011V146.419V151.419H51.4477V146.419ZM39.6011 146.419H44.6011V142.413H39.6011H34.6011V146.419H39.6011ZM69.9021 135.723L64.9226 136.176L65.336 140.723H69.9021V135.723ZM68.9539 133.901L65.8427 137.815L65.8703 137.837L65.8981 137.859L68.9539 133.901ZM64.8737 133.507L63.0544 128.85L63.0544 128.85L64.8737 133.507ZM63.851 134.242L67.8621 137.227L67.8785 137.205L67.8946 137.183L63.851 134.242ZM63.4994 135.297L68.4947 135.514L68.4975 135.45L68.4986 135.386L63.4994 135.297ZM63.6912 136.16L59.3499 138.64L59.3763 138.687L59.4037 138.732L63.6912 136.16ZM64.3304 136.82L61.4843 140.931L61.5443 140.973L61.6054 141.013L64.3304 136.82ZM65.3531 137.31L67.0348 132.602L67.0348 132.602L65.3531 137.31ZM66.6954 137.683L67.8035 132.808L67.7733 132.801L67.7431 132.794L66.6954 137.683ZM68.5704 138.109L67.4623 142.985L67.4859 142.99L67.5096 142.996L68.5704 138.109ZM71.4255 139.047L69.2834 143.565L69.2909 143.568L69.2984 143.572L71.4255 139.047ZM73.5136 140.442L70.0471 144.046L70.0585 144.057L70.0699 144.067L73.5136 140.442ZM74.8027 142.307L70.1831 144.22L70.1831 144.22L74.8027 142.307ZM75.2501 144.672L80.25 144.698L80.2502 144.664L80.2499 144.631L75.2501 144.672ZM74.2061 148.219L70.1058 145.358L70.1058 145.358L74.2061 148.219ZM71.2338 150.489L69.3505 145.857L69.3416 145.86L71.2338 150.489ZM61.8055 150.457L63.675 145.819L63.675 145.819L61.8055 150.457ZM57.4802 143.734V138.734H52.4173L52.4806 143.797L57.4802 143.734ZM62.5299 143.734L67.5208 143.432L67.2361 138.734H62.5299V143.734ZM63.0946 145.492L59.0217 148.393L59.0217 148.393L63.0946 145.492ZM64.4689 146.558L62.5538 151.176L62.5636 151.18L62.5735 151.184L64.4689 146.558ZM68.3254 146.632L66.5482 141.959L66.5371 141.963L66.526 141.967L68.3254 146.632ZM69.4866 145.833L65.5664 142.73L65.5664 142.73L69.4866 145.833ZM69.9021 144.661L74.9014 144.742L74.9028 144.658L74.9014 144.575L69.9021 144.661ZM69.5186 143.607L65.6775 146.807L65.6965 146.83L65.7157 146.853L69.5186 143.607ZM68.368 142.839L66.3907 147.432L66.4289 147.448L66.4674 147.464L68.368 142.839ZM66.4078 142.232L65.2702 147.101L65.2771 147.103L66.4078 142.232ZM64.1279 141.7L65.2655 136.831L65.2555 136.828L65.2456 136.826L64.1279 141.7ZM59.6642 139.601L56.3288 143.326L56.3355 143.332L56.3424 143.338L59.6642 139.601ZM58.0449 135.659L63.0448 135.681L63.0449 135.657L63.0448 135.633L58.0449 135.659ZM59.1315 132.112L55.0744 129.189L55.0744 129.189L59.1315 132.112ZM62.1677 129.736L64.1797 134.313L64.1797 134.313L62.1677 129.736ZM70.9887 129.746L68.8885 134.284L68.9041 134.291L68.9197 134.298L70.9887 129.746ZM73.8971 132.143L78.053 129.363L78.053 129.363L73.8971 132.143ZM74.9518 135.723V140.723H80.0044L79.9515 135.671L74.9518 135.723ZM69.9021 135.723L74.8816 135.27C74.6995 133.268 73.7954 131.323 72.0097 129.944L68.9539 133.901L65.8981 137.859C65.6257 137.648 65.3653 137.353 65.1766 136.99C64.9935 136.638 64.9375 136.339 64.9226 136.176L69.9021 135.723ZM68.9539 133.901L72.0652 129.987C70.3027 128.586 68.2398 128.241 66.5782 128.241V133.241V138.241C66.7493 138.241 66.7391 138.26 66.6052 138.223C66.4591 138.183 66.1676 138.074 65.8427 137.815L68.9539 133.901ZM66.5782 133.241V128.241C65.5031 128.241 64.2696 128.375 63.0544 128.85L64.8737 133.507L66.6929 138.164C66.5288 138.228 66.4252 138.245 66.4126 138.247C66.3996 138.249 66.4498 138.241 66.5782 138.241V133.241ZM64.8737 133.507L63.0544 128.85C61.9423 129.284 60.7275 130.036 59.8073 131.301L63.851 134.242L67.8946 137.183C67.4289 137.823 66.896 138.085 66.6929 138.164L64.8737 133.507ZM63.851 134.242L59.8398 131.257C58.9595 132.44 58.5251 133.815 58.5002 135.208L63.4994 135.297L68.4986 135.386C68.4879 135.983 68.2879 136.655 67.8621 137.227L63.851 134.242ZM63.4994 135.297L58.5041 135.08C58.4549 136.212 58.6758 137.461 59.3499 138.64L63.6912 136.16L68.0324 133.679C68.4225 134.362 68.5155 135.035 68.4947 135.514L63.4994 135.297ZM63.6912 136.16L59.4037 138.732C59.9731 139.681 60.717 140.4 61.4843 140.931L64.3304 136.82L67.1764 132.709C67.3897 132.857 67.7075 133.135 67.9786 133.587L63.6912 136.16ZM64.3304 136.82L61.6054 141.013C62.2844 141.454 62.9927 141.777 63.6714 142.019L65.3531 137.31L67.0348 132.602C66.9803 132.582 66.9573 132.571 66.9597 132.572C66.9621 132.573 66.997 132.59 67.0553 132.628L64.3304 136.82ZM65.3531 137.31L63.6714 142.019C64.313 142.248 64.9773 142.429 65.6478 142.572L66.6954 137.683L67.7431 132.794C67.4192 132.725 67.1887 132.657 67.0348 132.602L65.3531 137.31ZM66.6954 137.683L65.5873 142.559L67.4623 142.985L68.5704 138.109L69.6785 133.234L67.8035 132.808L66.6954 137.683ZM68.5704 138.109L67.5096 142.996C68.2914 143.165 68.8682 143.368 69.2834 143.565L71.4255 139.047L73.5676 134.529C72.3351 133.945 71.0085 133.522 69.6312 133.223L68.5704 138.109ZM71.4255 139.047L69.2984 143.572C69.722 143.771 69.9425 143.945 70.0471 144.046L73.5136 140.442L76.9801 136.839C75.9625 135.86 74.791 135.104 73.5527 134.522L71.4255 139.047ZM73.5136 140.442L70.0699 144.067C70.1461 144.14 70.1678 144.183 70.1831 144.22L74.8027 142.307L79.4222 140.394C78.8551 139.024 78.0174 137.825 76.9573 136.817L73.5136 140.442ZM74.8027 142.307L70.1831 144.22C70.1947 144.248 70.2476 144.388 70.2503 144.713L75.2501 144.672L80.2499 144.631C80.2384 143.209 79.993 141.772 79.4222 140.394L74.8027 142.307ZM75.2501 144.672L70.2502 144.646C70.2475 145.161 70.133 145.319 70.1058 145.358L74.2061 148.219L78.3064 151.081C79.657 149.145 80.2385 146.938 80.25 144.698L75.2501 144.672ZM74.2061 148.219L70.1058 145.358C70.0529 145.434 69.8942 145.636 69.3505 145.857L71.2338 150.489L73.117 155.12C75.1585 154.29 76.9814 152.98 78.3064 151.081L74.2061 148.219ZM71.2338 150.489L69.3416 145.86C68.8111 146.077 67.9382 146.277 66.5782 146.277V151.277V156.277C68.8546 156.277 71.0855 155.951 73.1259 155.117L71.2338 150.489ZM66.5782 151.277V146.277C65.2403 146.277 64.3101 146.075 63.675 145.819L61.8055 150.457L59.936 155.094C62.014 155.932 64.2656 156.277 66.5782 156.277V151.277ZM61.8055 150.457L63.675 145.819C63.1588 145.611 62.9316 145.383 62.7854 145.166L58.6414 147.964L54.4975 150.762C55.8569 152.775 57.7392 154.208 59.936 155.094L61.8055 150.457ZM58.6414 147.964L62.7854 145.166C62.7076 145.051 62.4922 144.66 62.4798 143.672L57.4802 143.734L52.4806 143.797C52.5109 146.218 53.0696 148.647 54.4975 150.762L58.6414 147.964ZM57.4802 143.734V148.734H62.5299V143.734V138.734H57.4802V143.734ZM62.5299 143.734L57.5391 144.037C57.6256 145.465 58.0344 147.006 59.0217 148.393L63.0946 145.492L67.1674 142.592C67.4871 143.041 67.5195 143.41 67.5208 143.432L62.5299 143.734ZM63.0946 145.492L59.0217 148.393C59.9509 149.697 61.191 150.611 62.5538 151.176L64.4689 146.558L66.3839 141.939C66.4677 141.974 66.6002 142.041 66.7518 142.158C66.906 142.278 67.0489 142.425 67.1674 142.592L63.0946 145.492ZM64.4689 146.558L62.5735 151.184C63.8789 151.719 65.2264 151.92 66.5143 151.92V146.92V141.92C66.2539 141.92 66.2377 141.879 66.3642 141.931L64.4689 146.558ZM66.5143 146.92V151.92C67.6469 151.92 68.8975 151.77 70.1248 151.297L68.3254 146.632L66.526 141.967C66.5881 141.943 66.6367 141.929 66.6685 141.92C66.7003 141.912 66.7167 141.91 66.7155 141.91C66.7142 141.91 66.6973 141.913 66.6631 141.915C66.6289 141.918 66.5798 141.92 66.5143 141.92V146.92ZM68.3254 146.632L70.1026 151.306C71.2482 150.87 72.4571 150.136 73.4068 148.937L69.4866 145.833L65.5664 142.73C65.9764 142.212 66.4111 142.011 66.5482 141.959L68.3254 146.632ZM69.4866 145.833L73.4068 148.937C74.3683 147.722 74.8769 146.266 74.9014 144.742L69.9021 144.661L64.9027 144.581C64.9074 144.293 64.9573 143.96 65.0803 143.614C65.2036 143.266 65.3772 142.969 65.5664 142.73L69.4866 145.833ZM69.9021 144.661L74.9014 144.575C74.8759 143.098 74.3828 141.604 73.3214 140.36L69.5186 143.607L65.7157 146.853C65.4611 146.554 65.2472 146.197 65.1019 145.797C64.9584 145.403 64.9079 145.039 64.9028 144.747L69.9021 144.661ZM69.5186 143.607L73.3597 140.406C72.41 139.266 71.2285 138.609 70.2686 138.215L68.368 142.839L66.4674 147.464C66.484 147.471 66.4055 147.441 66.271 147.351C66.1351 147.261 65.9123 147.089 65.6775 146.807L69.5186 143.607ZM68.368 142.839L70.3453 138.247C69.4663 137.869 68.503 137.586 67.5384 137.362L66.4078 142.232L65.2771 147.103C65.9035 147.248 66.2469 147.37 66.3907 147.432L68.368 142.839ZM66.4078 142.232L67.5454 137.363L65.2655 136.831L64.1279 141.7L62.9904 146.568L65.2702 147.101L66.4078 142.232ZM64.1279 141.7L65.2456 136.826C63.9124 136.52 63.2705 136.117 62.986 135.864L59.6642 139.601L56.3424 143.338C58.2311 145.017 60.5651 146.012 63.0103 146.573L64.1279 141.7ZM59.6642 139.601L62.9996 135.876C62.9933 135.87 63.0064 135.881 63.0264 135.909C63.0467 135.938 63.0612 135.966 63.0693 135.986C63.0876 136.03 63.0436 135.956 63.0448 135.681L58.0449 135.659L53.0449 135.638C53.0326 138.508 54.028 141.266 56.3288 143.326L59.6642 139.601ZM58.0449 135.659L63.0448 135.633C63.0428 135.254 63.1246 135.123 63.1886 135.034L59.1315 132.112L55.0744 129.189C53.6753 131.132 53.0327 133.366 53.0449 135.685L58.0449 135.659ZM59.1315 132.112L63.1886 135.034C63.3341 134.832 63.5974 134.569 64.1797 134.313L62.1677 129.736L60.1557 125.158C58.1528 126.039 56.3919 127.36 55.0744 129.189L59.1315 132.112ZM62.1677 129.736L64.1797 134.313C64.7386 134.067 65.509 133.884 66.5889 133.884V128.884V123.884C64.3591 123.884 62.1821 124.268 60.1557 125.158L62.1677 129.736ZM66.5889 128.884V133.884C67.7197 133.884 68.4393 134.076 68.8885 134.284L70.9887 129.746L73.089 125.209C71.0524 124.266 68.8388 123.884 66.5889 123.884V128.884ZM70.9887 129.746L68.9197 134.298C69.4174 134.524 69.6245 134.749 69.7413 134.924L73.8971 132.143L78.053 129.363C76.7919 127.478 75.0601 126.105 73.0578 125.195L70.9887 129.746ZM73.8971 132.143L69.7413 134.924C69.8387 135.069 69.9471 135.295 69.9521 135.775L74.9518 135.723L79.9515 135.671C79.9282 133.438 79.3334 131.277 78.053 129.363L73.8971 132.143ZM74.9518 135.723V130.723H69.9021V135.723V140.723H74.9518V135.723ZM77.9135 151H72.9135V156H77.9135V151ZM77.9135 129.182V124.182H72.9135V129.182H77.9135ZM83.1869 129.182H88.1869V124.182H83.1869V129.182ZM83.1869 138.408H78.1869V143.408H83.1869V138.408ZM83.4745 138.408V143.408H85.9123L87.4137 141.487L83.4745 138.408ZM90.6869 129.182V124.182H88.2491L86.7477 126.102L90.6869 129.182ZM96.8978 129.182L100.813 132.292L107.255 124.182H96.8978V129.182ZM89.1635 138.919L85.2483 135.809L83.0073 138.63L84.9744 141.649L89.1635 138.919ZM97.0363 151V156H106.263L101.225 148.27L97.0363 151ZM90.7295 151L86.5058 153.676L87.9782 156H90.7295V151ZM85.2963 142.424L89.52 139.748L85.7501 133.798L81.3767 139.32L85.2963 142.424ZM83.1869 145.087L79.2673 141.983L78.1869 143.347V145.087H83.1869ZM83.1869 151V156H88.1869V151H83.1869ZM77.9135 151H82.9135V129.182H77.9135H72.9135V151H77.9135ZM77.9135 129.182V134.182H83.1869V129.182V124.182H77.9135V129.182ZM83.1869 129.182H78.1869V138.408H83.1869H88.1869V129.182H83.1869ZM83.1869 138.408V143.408H83.4745V138.408V133.408H83.1869V138.408ZM83.4745 138.408L87.4137 141.487L94.626 132.261L90.6869 129.182L86.7477 126.102L79.5354 135.328L83.4745 138.408ZM90.6869 129.182V134.182H96.8978V129.182V124.182H90.6869V129.182ZM96.8978 129.182L92.9826 126.072L85.2483 135.809L89.1635 138.919L93.0786 142.029L100.813 132.292L96.8978 129.182ZM89.1635 138.919L84.9744 141.649L92.8473 153.73L97.0363 151L101.225 148.27L93.3525 136.189L89.1635 138.919ZM97.0363 151V146H90.7295V151V156H97.0363V151ZM90.7295 151L94.9532 148.324L89.52 139.748L85.2963 142.424L81.0726 145.1L86.5058 153.676L90.7295 151ZM85.2963 142.424L81.3767 139.32L79.2673 141.983L83.1869 145.087L87.1065 148.192L89.2159 145.528L85.2963 142.424ZM83.1869 145.087H78.1869V151H83.1869H88.1869V145.087H83.1869ZM83.1869 151V146H77.9135V151V156H83.1869V151Z" fill="black" mask="url(#path-5-outside-3_1_43)"/>
</svg>
